<svg width="1024" height="1024" viewBox="0 0 1024 1024" fill="none" xmlns="http://www.w3.org/2000/svg">
<path d="M506.999 101V103C506.889 103.021 505.571 103.734 504.999 104C502.756 105.042 501.166 107.429 499.999 109.5C487.568 131.552 479.397 204.747 479.999 230.5C480.169 237.78 485.747 270.764 484.999 273.5C484.768 274.345 481.299 276.914 481.999 279C475.558 283.463 453.633 286.342 447.499 282C441.053 277.437 440.968 251.236 440.999 243L446.499 253C449.143 253.743 452.115 249.358 452.999 247.5C459.119 234.633 458.067 200.002 462.999 185.5C463.238 184.797 469.506 178.224 470.999 173.5C472.758 167.934 471.75 158.278 471.999 157.5C472.208 156.846 477.038 150.84 477.999 148C480.007 142.063 480.637 134.058 481.999 130.5C484.291 124.515 494.391 110.415 494.999 106C495.209 104.475 491.83 105.769 493.999 103C497.699 102.543 503.427 101.102 506.999 101Z" fill="url(#paint0_linear_2551_953)"/>
<path d="M528 103C529.122 104.073 529.584 107.417 530 108C526.965 107.494 528.836 110.005 529.5 111C540.668 127.731 537.338 129.045 543 145.5C543.668 147.441 548.258 152.628 549 154C549.01 158.55 548.945 164.084 550 168.5C551.309 173.983 557.378 181.301 558 183.5C560.852 193.58 566.784 250.103 573.5 252C580.828 254.07 578.44 243.993 582 242C582.115 252.705 582.954 280.555 570.5 283C557.469 285.558 535.795 284.292 536 267.5C536.288 243.869 540.685 223.772 539 198C537.376 173.158 531.211 139.614 522 116.5C520.379 112.432 518.648 107.061 516 105C513.448 103.014 512.029 102.03 507 103V101C514.487 100.787 520.736 102.127 528 103Z" fill="url(#paint1_linear_2551_953)"/>
<path d="M494 103C491.831 105.769 495.21 104.475 495 106C478.727 121.455 460.456 148.618 453 170C452.657 170.983 453.334 172.978 453 174C442.577 196.071 438.766 224.136 438 248.5C437.423 266.848 449.112 283.965 425.5 288C390.122 294.045 394.312 269.317 397 242L401.5 249C407.301 250.178 420.171 209.876 423 203.5C425.555 197.743 441.711 171.426 442 169.5C442.608 165.448 438.332 163.654 439 160.5C439.399 158.617 448.344 152.603 450 150.5C453.471 146.091 457.853 137.13 461 133C466.871 125.296 474.976 117.886 480 111C480.952 109.695 481.244 106.679 481 105C485.387 104.091 489.558 103.548 494 103Z" fill="#459149"/>
<path d="M516 105C517.767 116.891 517.841 129.06 519 141C520.567 157.146 523.486 173.372 525 189.5C526.342 203.802 524.819 233.94 528 245.5C528.389 246.914 530.418 249.82 532.5 249C535.864 247.675 533.227 239.484 537 239C536.565 244.957 534.595 267.24 533 271.5C529.418 281.064 500.204 280.718 493.5 276C488.705 272.626 486.892 256.103 486 250C485.848 248.962 485.22 247.995 485 246C488.839 246.788 486.436 253.311 492 250.5C496.764 212.058 500.913 172.107 504 133C504.711 123.988 506.771 113.947 505 105V104C505.572 103.734 506.89 103.021 507 103C512.029 102.03 513.448 103.014 516 105Z" fill="url(#paint2_linear_2551_953)"/>
<path d="M540 105C540.05 107.022 542.131 108.437 543 110C551.732 125.711 569.388 143.726 583 158C582.864 161.008 579.669 165.765 580 168.5C580.253 170.588 597.383 199.815 600 205.5C603.08 212.192 613.622 248.692 620.5 247C625.135 245.86 621.375 240.885 624 238C625.144 246.869 628.629 277.945 624 284.5C619.678 290.621 587.243 289.264 583 281.5C581.633 278.999 584.039 234.167 583 224.5C581.071 206.549 574.798 184.717 568 168C557.532 142.255 545.252 129.353 530 108C529.584 107.417 529.122 104.073 528 103C532.625 103.556 535.513 104.1 540 105Z" fill="#459249"/>
<path d="M505 105C486.249 150.849 479.421 202.506 483 252C483.703 261.718 491.253 272.588 482 279C481.3 276.914 484.769 274.345 485 273.5C485.748 270.764 480.17 237.78 480 230.5C479.398 204.747 487.569 131.552 500 109.5C501.167 107.429 502.757 105.042 505 104V105Z" fill="url(#paint3_linear_2551_953)"/>
<path d="M481 105C481.244 106.679 480.952 109.695 480 111C476.4 109.262 468.596 115.602 465.5 118C442.711 135.653 417.665 166.437 409 194C404.678 202.017 403.559 205.341 401 214C397.728 225.072 393.813 241.146 393 252.5C392.503 259.438 395.763 282.044 392.5 286C389.784 289.293 367.715 293.11 363.5 292C352.512 289.107 356.539 254.77 358 246C359.981 247.586 358.009 253.141 361.5 254C367.489 255.474 383.364 217.002 387 210.5C390.191 204.794 412.369 170.975 412 168.5C411.867 167.606 408.706 166.833 409 163.5C409.387 159.116 420.828 156.153 419 150C426.025 143.283 430.546 136.671 436.5 131C440.827 126.879 451.798 122.929 454 117C454.673 115.189 455.69 115.247 454 113C462.695 109.633 471.861 106.894 481 105Z" fill="#489548"/>
<path d="M504 133C501.04 132.638 501.062 133.11 500 135.5C486.927 164.933 481.487 214.148 485 246C485.22 247.995 485.848 248.962 486 250L483 252C479.421 202.506 486.249 150.849 505 105C506.771 113.947 504.711 123.988 504 133Z" fill="#E2EECD"/>
<path d="M539 198H536C534.221 185.453 528.105 155.968 524 144.5C522.884 141.383 522.86 140.447 519 141C517.841 129.06 517.767 116.891 516 105C518.648 107.061 520.379 112.432 522 116.5C531.211 139.614 537.376 173.158 539 198Z" fill="#E5F1CE"/>
<path d="M569 113C569.967 115.574 564.29 115.014 567 118C570.423 121.771 582.372 128.161 586.5 132C592.514 137.594 597.867 144.336 605 151C602.012 155.03 611.272 159.039 612 161.5C613.44 166.369 609.921 169.095 610 169.5C610.726 173.203 617.786 182.099 620 186C617.256 184.59 614.839 187.371 613 190C611.981 187.718 609.205 184.333 608 182C593.152 153.25 571.26 126.303 543 110C542.131 108.437 540.05 107.022 540 105C549.803 106.966 559.692 109.388 569 113Z" fill="#59A845"/>
<path d="M478 148C471.396 143.805 472.639 153.682 472 154.5C471.393 155.277 467.462 154.982 466.5 156C462.419 160.318 458.952 168.233 453 170C460.456 148.618 478.727 121.455 495 106C494.392 110.415 484.292 124.515 482 130.5C480.638 134.058 480.008 142.063 478 148Z" fill="#E4F0CF"/>
<path d="M529.999 108C545.251 129.353 557.531 142.255 567.999 168C561.179 166.342 564.239 158.668 554.999 165C553.628 161.642 552.775 156.746 550.999 153.5C549.882 151.458 549.048 154.091 548.999 154C548.257 152.628 543.667 147.441 542.999 145.5C537.337 129.045 540.667 127.731 529.499 111C528.835 110.005 526.964 107.494 529.999 108Z" fill="#DFEDCB"/>
<path d="M480 111C474.976 117.886 466.871 125.296 461 133C447.324 143.879 436.86 158.837 426 172.5C418.653 181.744 415.381 182.162 409 194C417.665 166.437 442.711 135.653 465.5 118C468.596 115.602 476.4 109.262 480 111Z" fill="#E4F1D0"/>
<path d="M608 182L606 184C599.175 172.831 591.742 167.168 583 158C569.388 143.726 551.732 125.711 543 110C571.26 126.303 593.152 153.25 608 182Z" fill="#E0EECB"/>
<path d="M453.999 117C418.067 133.763 386.329 166.99 369.999 203C363.692 216.907 354.156 243.643 352.999 258.5C352.552 264.24 356.011 285.287 353.999 289.5C349.311 299.319 325.211 295.739 317.999 303C318.281 294.585 316.394 286.266 316.999 277.5C321.556 211.446 394.367 136.092 453.999 113C455.689 115.247 454.672 115.189 453.999 117Z" fill="#3F8848"/>
<path d="M704 302C697.04 295.101 674.064 299.877 669 289.5C667.029 285.462 669.036 259.267 668 251.5C664.845 227.853 649.596 195.652 636 176C622.155 155.988 598.957 132.622 577.5 121C575.371 119.847 569.344 116.191 567 118C564.29 115.014 569.967 115.574 569 113C643.81 142.028 706.044 220.886 704 302Z" fill="#3F8948"/>
<path d="M454 117C451.798 122.929 440.827 126.879 436.5 131C430.546 136.671 426.025 143.283 419 150C400.187 167.988 383.098 180.14 371 205L370 203C386.33 166.99 418.068 133.763 454 117Z" fill="#DFEDCE"/>
<path d="M636 176L633 177C624.588 166.71 614.144 159.543 605 151C597.867 144.336 592.514 137.594 586.5 132C582.372 128.161 570.423 121.771 567 118C569.344 116.191 575.371 119.847 577.5 121C598.957 132.622 622.155 155.988 636 176Z" fill="#DAEAC7"/>
<path d="M461 133C457.853 137.13 453.471 146.091 450 150.5C448.344 152.603 439.399 158.617 439 160.5C438.332 163.654 442.608 165.448 442 169.5C441.711 171.426 425.555 197.743 423 203.5C420.171 209.876 407.301 250.178 401.5 249L397 242C397.923 232.621 401.996 223.496 401 214C403.559 205.341 404.678 202.017 409 194C415.381 182.162 418.653 181.744 426 172.5C436.86 158.837 447.324 143.879 461 133Z" fill="#9AC293"/>
<path d="M503.999 133C500.912 172.107 496.763 212.058 491.999 250.5C486.435 253.311 488.838 246.788 484.999 246C481.486 214.148 486.926 164.933 499.999 135.5C501.061 133.11 501.039 132.638 503.999 133Z" fill="#ACCEA1"/>
<path d="M536 198C537.99 212.034 538.035 224.826 537 239C533.227 239.484 535.864 247.675 532.5 249C530.418 249.82 528.389 246.914 528 245.5C524.819 233.94 526.342 203.802 525 189.5C523.486 173.372 520.567 157.146 519 141C522.86 140.447 522.884 141.383 524 144.5C528.105 155.968 534.221 185.453 536 198Z" fill="#A9CC9D"/>
<path d="M478 148C477.039 150.84 472.209 156.846 472 157.5C471.751 158.278 472.759 167.934 471 173.5C469.507 178.224 463.239 184.797 463 185.5C458.068 200.002 459.12 234.633 453 247.5C452.116 249.358 449.144 253.743 446.5 253L441 243C441.089 219.28 445.689 196.376 453 174C453.334 172.978 452.657 170.983 453 170C458.952 168.233 462.419 160.318 466.5 156C467.462 154.982 471.393 155.277 472 154.5C472.639 153.682 471.396 143.805 478 148Z" fill="#A1C798"/>
<path d="M358 246C360.014 233.916 365.65 215.992 371 205C383.098 180.14 400.187 167.988 419 150C420.828 156.153 409.387 159.116 409 163.5C408.706 166.833 411.867 167.606 412 168.5C412.369 170.975 390.191 204.794 387 210.5C383.364 217.002 367.489 255.474 361.5 254C358.009 253.141 359.981 247.586 358 246Z" fill="#90BC8B"/>
<path d="M633 177C646.796 193.876 661.338 224.534 665 246C660.53 252.596 658.979 254.99 653 247.5C645.929 238.641 627.771 199.69 620 186C617.786 182.099 610.726 173.203 610 169.5C609.921 169.095 613.44 166.369 612 161.5C611.272 159.039 602.012 155.03 605 151C614.144 159.543 624.588 166.71 633 177Z" fill="#88B684"/>
<path d="M555 165C559.106 175.06 561.684 184.69 567 194.5C569.518 199.147 577.014 205.465 578 207.5C580.362 212.376 581.931 235.53 582 242C578.44 243.993 580.828 254.07 573.5 252C566.784 250.103 560.852 193.58 558 183.5C557.378 181.301 551.309 173.983 550 168.5C548.945 164.084 549.01 158.55 549 154C549.049 154.091 549.883 151.458 551 153.5C552.776 156.746 553.629 161.642 555 165Z" fill="#95C08D"/>
<path d="M606.001 184C616.456 201.108 621.476 218.427 624.001 238C621.376 240.885 625.136 245.86 620.501 247C613.623 248.692 603.081 212.192 600.001 205.5C597.384 199.815 580.254 170.588 580.001 168.5C579.67 165.765 582.865 161.008 583.001 158C591.743 167.168 599.176 172.831 606.001 184Z" fill="#94BF8E"/>
<path d="M568.001 168C574.799 184.717 581.072 206.549 583.001 224.5C584.04 234.167 581.634 278.999 583.001 281.5C587.244 289.264 619.679 290.621 624.001 284.5C628.63 277.945 625.145 246.869 624.001 238C621.476 218.427 616.456 201.108 606.001 184L608.001 182C609.206 184.333 611.982 187.718 613.001 190C626.015 219.156 631.676 252.761 629.001 284.5C669.614 305.71 670.678 279.28 665.001 246C661.339 224.534 646.797 193.876 633.001 177L636.001 176C649.597 195.652 664.846 227.853 668.001 251.5C669.037 259.267 667.03 285.462 669.001 289.5C674.065 299.877 697.041 295.101 704.001 302C703.951 303.989 706.244 307.622 704.001 311C697.179 307.16 689.884 310.746 682.501 309C677.438 307.803 670.72 300.711 664.501 300C658.293 299.29 648.879 302.081 641.501 301C638.74 300.596 632.442 296.341 629.501 296C621.379 295.057 618.29 299.288 612.001 300C611.029 300.11 609.966 299.867 609.001 300C605.662 300.459 601.511 299.742 598.001 300C596.17 298.531 593.262 297.883 591.001 297C581.286 293.206 583.484 293.036 573.001 293C570.209 292.991 569.207 294.004 569.001 294C563.75 293.886 556.306 294.745 551.501 294C542.159 292.551 537.911 286.31 527.001 287C524.955 287.129 519.165 289.942 517.501 290C507.122 290.363 497.432 286.376 489.001 287C478.743 287.759 473.638 295.301 459.001 295C454.384 294.905 451.049 293.2 447.001 293C446.889 292.995 447.463 291.882 445.001 292C439.901 292.245 430.371 299.218 424.501 300C412.239 301.634 404.649 294.876 397.501 295C393.698 295.066 387.424 300.241 384.001 301C382.508 301.331 381.157 301.975 381.001 302C373.533 303.197 363.856 300.154 357.501 301C352.402 301.679 344.703 308.878 340.501 310C331.01 312.533 326.662 305.356 317.001 313C316.557 309.498 317.886 306.446 318.001 303C325.213 295.739 349.313 299.319 354.001 289.5C356.013 285.287 352.554 264.24 353.001 258.5C354.158 243.643 363.694 216.907 370.001 203L371.001 205C365.651 215.992 360.015 233.916 358.001 246C356.54 254.77 352.513 289.107 363.501 292C367.716 293.11 389.785 289.293 392.501 286C395.764 282.044 392.504 259.438 393.001 252.5C393.814 241.146 397.729 225.072 401.001 214C401.997 223.496 397.924 232.621 397.001 242C394.313 269.317 390.123 294.045 425.501 288C449.113 283.965 437.424 266.848 438.001 248.5C438.767 224.136 442.578 196.071 453.001 174C445.69 196.376 441.09 219.28 441.001 243C440.97 251.236 441.055 277.437 447.501 282C453.635 286.342 475.56 283.463 482.001 279C491.254 272.588 483.704 261.718 483.001 252L486.001 250C486.893 256.103 488.706 272.626 493.501 276C500.205 280.718 529.419 281.064 533.001 271.5C534.596 267.24 536.566 244.957 537.001 239C538.036 224.826 537.991 212.034 536.001 198H539.001C540.686 223.772 536.289 243.869 536.001 267.5C535.796 284.292 557.47 285.558 570.501 283C582.955 280.555 582.116 252.705 582.001 242C581.932 235.53 580.363 212.376 578.001 207.5C577.015 205.465 569.519 199.147 567.001 194.5C561.685 184.69 559.107 175.06 555.001 165C564.241 158.668 561.181 166.342 568.001 168Z" fill="#B5D6AD"/>
<path d="M620 186C627.771 199.69 645.929 238.641 653 247.5C658.979 254.99 660.53 252.596 665 246C670.677 279.28 669.613 305.71 629 284.5C631.675 252.761 626.014 219.156 613 190C614.839 187.371 617.256 184.59 620 186Z" fill="#449148"/>
<path d="M488.999 287C488.758 290.358 497.918 297.755 497.999 298.5C498.224 300.579 494.77 301.425 494.999 303.5C495.057 304.025 498.789 306.515 499.999 312C500.059 312.273 498.788 317.161 498.999 317.5C500.229 319.48 502.211 318.43 503.999 320.5C504.166 320.693 504.083 324.655 504.999 325.5C507.241 327.569 508.988 323.84 509.999 324C513.887 324.617 514.405 325.064 515.999 328L509.999 326.5C513.491 331.426 506.033 335.724 506.999 341.5C507.542 344.75 510.875 344.765 510.999 345C511.667 346.269 511.965 345.938 511.999 346C515.64 352.606 512.511 353.155 512.999 356.5C513.067 356.968 519.364 358.676 513.999 364C513.013 364.069 511.988 363.949 510.999 364C508.558 364.125 499.53 361.486 497.999 363.5L505.999 371C505.643 374.712 504.087 383.172 504.999 386C500.197 386.063 500.565 387.864 497.999 390C489.605 390.823 493.066 387.147 492.499 387C488.909 386.068 481.755 403.631 493.999 395C496.544 402.704 504.163 404.991 497.999 413C497.87 413.168 495.184 415.897 494.999 416C492.663 417.3 491.484 416.991 488.999 417C488.916 415.549 484.012 408.124 483.499 408C480.114 407.185 478.778 414.258 478.999 416C479.639 421.05 483.553 423.915 483.999 427.5C484.736 433.427 481.557 435.073 480.999 438L467.499 432C462.641 434.631 467.929 437.499 467.999 439.5C468.417 451.503 463.025 448.461 461.999 451.5C460.815 455.006 464.503 458.017 463.999 460.5C462.731 466.742 447.68 463.69 444.999 467.5C440.934 474.47 449.202 477.921 448.999 483.5C448.651 493.051 432.839 496.754 430.999 500.5C428.606 505.371 433.368 511.753 430.999 518.5C429.512 522.736 419.224 528.558 418.999 530.5C418.846 531.825 427.8 541.295 426.999 546.5C426.735 548.215 417.401 557.002 416.999 559.5C415.588 568.267 427.047 565.394 428.999 573.5C431.862 585.39 421.613 590.648 422.999 596.5C425.41 602.9 437.486 598.382 438.999 606.5C440.789 616.105 428.406 610.667 429.999 620.5C431.671 630.826 436.939 620.242 437.499 620C440.114 618.868 447.034 624.219 447.999 626.5C452.854 637.981 440.962 639.592 442.999 650.5C444.64 655.432 454.673 650.775 457.999 656.5L453.999 674.5C455.48 678.839 467.572 673.15 468.999 681.5C470.101 687.949 461.618 689.665 460.999 692.5C459.711 698.402 471.009 702.895 473.999 707.5C454.567 724.745 475.342 726.342 476.999 734.5C478.917 743.944 461.327 745.09 469.999 755C469.445 754.182 461.826 749.79 466.999 745.5C461.585 736.391 452.852 767.212 451.999 769C447.461 769.316 452.537 760.684 447.999 761C448.096 754.439 447.288 744.65 446.999 737.5C446.97 736.784 443.547 735.939 443.999 731.5C444.431 727.258 450.883 724.527 449.999 717.5C448.964 709.268 444.926 713.602 441.499 711C430.447 702.607 441.445 687.772 440.999 686.5C440.368 684.702 436.362 684.86 435.499 684C424.383 672.933 433.243 669.784 431.999 666.5C431.009 663.887 426.247 665.548 425.499 665C424.8 664.488 416.154 651.353 415.999 650.5C415.166 645.907 421.002 639.919 419.999 636.5C418.315 630.762 401.127 635.826 399.999 625.5C399.739 623.124 406.718 610.818 404.999 608.5C403.973 607.117 396.59 607.51 395.499 607C385.581 602.361 387.345 580.365 397.999 576.5C378.992 561.5 380.979 560.566 396.999 544.5C394.13 535.545 379.763 536.18 385.999 524.5C388.612 519.605 396.758 522.95 396.999 516.5C397.154 512.353 389.188 509.652 392.999 501.5C395.597 495.942 402.869 501.324 406.999 496.5C407.205 496.26 409.035 490.814 408.999 490.5C408.928 489.877 405.187 487.266 404.999 486.5C399.739 465.06 420.163 469.811 420.999 466.5C421.822 462.228 415.84 451.533 415.999 449.5C416.224 446.62 426.31 437.77 428.499 437C431.593 435.911 437.822 439.317 438.999 435.5C441.569 427.169 434.872 418.564 436.999 413.5C440.657 404.793 455.871 411.214 456.999 402.5C457.626 397.653 447.215 394.886 449.999 383.5C452.144 374.728 466.181 380.222 462.999 368.5C461.621 363.424 449.582 362.938 444.999 362C445.46 358.471 445.614 354.617 445.999 351L463.999 334.5C465.306 328.632 452.765 318.446 446.999 318C447.037 316.553 446.957 314.887 446.999 314C447.023 313.481 450.978 315.72 446.999 309C446.045 306.982 447.911 303.818 447.999 303C451.481 300.553 458.292 299.837 458.999 295C473.636 295.301 478.741 287.759 488.999 287ZM501.499 332C495.686 335.584 496.976 341.269 503.499 343L501.499 332ZM451.499 742C450.647 742.727 450.713 745.151 451.499 746C452.248 746.354 453.751 740.078 451.499 742Z" fill="url(#paint4_linear_2551_953)"/>
<path d="M527.001 287C525.536 291.94 532.736 297.737 533.001 298.5C536.505 308.601 534.302 345.394 536.001 359.5C544.316 428.529 603.063 480.352 610.001 544.5C610.44 548.556 607.288 570.366 612.501 568L611.001 562.5C611.569 559.461 622.122 562.01 624.001 550.5C624.64 546.584 621.521 541.102 624.001 539C627.261 544.161 627.65 546.494 626.001 552.5C622.409 565.583 611.424 555.726 613.001 571.5C613.57 577.187 620.791 575.732 622.001 581.5C625.175 596.627 603.539 597.165 603.001 598.5C600.637 604.51 608.279 616.209 608.001 618.5C606.912 627.465 591.065 622.747 590.001 628.5C589.288 632.354 595.781 636.721 595.001 641.5C594.01 647.57 581.06 649.766 580.001 654.5C577.634 665.083 600.491 671.462 581.501 680C578.117 681.522 574.502 678.097 572.001 682.5C588.649 696.428 570.257 694.316 569.001 699.5C568.306 702.37 574.643 705.794 573.001 709.5C572.006 711.745 568.648 710.376 566.001 712C552.747 720.132 570.204 751.285 578.001 760C576.776 760.545 576.617 761.017 575.001 761C574.866 760.999 574.489 758.987 572.501 760C570.613 760.962 570.652 763.731 570.001 765C569.105 766.746 569.313 767.272 569.001 768C552.779 805.836 551.411 827.585 546.001 867C542.147 868.231 537.846 862.649 535.001 864.5C534.894 864.57 538.622 867.051 535.501 867L535.001 862C538.571 862.461 541.086 865.13 543.001 862.5C543.683 850.709 542.914 838.133 545.001 826.5C546.733 816.845 569.21 762.258 567.001 759.5C566.057 758.322 562.958 759.441 562.501 759C555.243 751.994 562.01 749.726 561.001 746.5C560.134 743.728 554.04 744.345 553.501 744C544.913 738.505 556.341 732.045 554.001 726.5C553.354 724.966 545.524 723.738 541.001 717C542.506 716.504 542.425 713.125 543.001 712C544.247 709.569 549.412 709.81 542.001 705C541.654 703.8 538.55 702.643 541.001 700C542.691 702.12 546.353 703.143 548.001 705.5L550.001 704.5L543.001 685C544.807 685.353 544.909 684.983 546.001 684C552.851 677.836 553.112 674.775 553.001 664.5C552.995 663.987 550.009 657.549 550.001 656.5C549.893 641.871 565.845 641.747 566.001 635.5C566.108 631.214 559.605 630.334 561.001 621.5C563.422 606.176 576.656 614.385 578.001 613.5C581.336 611.306 572.646 607.115 572.001 604.5C569.499 594.362 584.36 591.917 585.001 589.5C585.456 587.785 579.558 584.044 579.001 581.5C576.199 568.697 590.957 568.892 592.001 564.5C593.289 559.079 585.803 556.151 585.001 552.5C582.947 543.142 592.499 541.095 593.001 534.5C593.749 524.672 584.186 526.137 580.001 519.5C570.839 504.969 590.348 497.249 580.501 491C575.475 487.81 571.255 494.041 566.001 486.5C562.793 481.895 563.271 477.198 563.001 472C562.996 471.897 564.994 472.314 565.001 471.5C565.017 469.58 562.787 467.589 565.001 464.5L563.001 463C560.29 460.375 553.718 468.074 551.001 464.5C549.652 455.625 542.651 453.433 546.001 443.5C546.385 442.362 549.251 440.883 550.001 439C554.674 427.276 546.169 421.821 539.001 431C537.891 430.189 538.132 430.096 537.501 429L536.501 431C530.102 426.872 528.659 418.826 526.001 412C525.727 411.296 527.061 410.671 527.001 410.5C526.654 409.521 523.322 407.454 523.001 406.5C522.19 404.089 525.718 397.523 519.001 397C518.882 395.113 516.955 389.063 515.001 388C516.62 379.788 505.381 375.481 509.001 367C510.557 367.727 509.82 369.64 511.001 368.5V364C511.99 363.949 513.015 364.069 514.001 364C528.655 362.98 523.105 353.155 517.001 344C513.652 338.977 512.654 345.811 511.001 345C504.345 341.736 516.123 336.099 521.001 339.5C516.91 336.498 518.612 332.811 516.001 328C514.407 325.064 513.889 324.617 510.001 324C509.593 320.298 504.519 312.224 500.001 312C498.791 306.515 495.059 304.025 495.001 303.5C494.772 301.425 498.226 300.579 498.001 298.5C497.92 297.755 488.76 290.358 489.001 287C497.432 286.376 507.122 290.363 517.501 290C519.165 289.942 524.955 287.129 527.001 287ZM527.501 395C523.045 396.276 530.765 407.854 531.501 408C535.885 408.868 540.174 394.716 527.501 395Z" fill="url(#paint5_linear_2551_953)"/>
<path d="M568.999 294L570.999 300C568.918 305.365 570.099 310.329 563.999 311C563.449 311.06 559.822 309.09 557.499 310C553.163 311.698 550.276 324.707 558.999 319L562.999 321C562.849 321.19 563.129 321.696 562.999 322C562.598 322.934 559.822 331.035 559.999 331.5C561.909 336.51 571.502 329.245 557.999 346.5C558.726 347.121 560.232 345.552 560.999 345C560.575 351.826 568.235 348.801 570.999 354C566.524 356.368 556.499 357.692 557.999 364.5C558.42 366.413 567.654 371.537 568.999 373.5C570.241 375.314 569.159 379.581 570.999 380C568.782 383.892 567.838 383.703 563.999 385.5C563.86 387.149 585.808 390.605 581.999 409.5C581.255 413.189 574.237 418.398 573.999 419.5C571.907 429.184 592.289 429.109 593.999 438.5C595.961 449.276 587.114 452.305 586.999 454.5C586.509 463.869 602.743 465.626 604.999 470.5C608.704 478.507 599.954 486.727 600.999 489.5C601.747 491.485 609.518 491.769 609.999 494.5C610.24 495.868 607.14 498.331 606.999 499.5C605.644 510.731 617.317 501.052 620.999 509.5C626.833 522.886 612.635 524.784 614.999 531.5C615.683 533.444 620.698 533.773 623.999 539C621.519 541.102 624.638 546.584 623.999 550.5C622.12 562.01 611.567 559.461 610.999 562.5L612.499 568C607.286 570.366 610.438 548.556 609.999 544.5C603.061 480.352 544.314 428.529 535.999 359.5C534.3 345.394 536.503 308.601 532.999 298.5C532.734 297.737 525.534 291.94 526.999 287C537.909 286.31 542.157 292.551 551.499 294C556.304 294.745 563.748 293.886 568.999 294Z" fill="url(#paint6_linear_2551_953)"/>
<path d="M445 292C446.367 295.647 443.207 305.109 444 307.5C444.567 309.21 446.915 308.856 447 309C450.979 315.72 447.024 313.481 447 314C443.46 312.964 444.167 315.931 444 316C440.839 317.303 434.517 318.261 431 320C431.115 317.826 434.037 299.007 430.5 299C428.983 306.776 427.991 315.139 427 323C408.947 326.737 396.592 339.65 380 347C382.01 331.758 382.867 316.331 384 301C387.423 300.241 393.697 295.066 397.5 295C404.648 294.876 412.238 301.634 424.5 300C430.37 299.218 439.9 292.245 445 292Z" fill="#045127"/>
<path d="M447.001 293C447.696 295.622 448.279 300.42 448.001 303C447.913 303.818 446.047 306.982 447.001 309C446.916 308.856 444.568 309.21 444.001 307.5C443.208 305.109 446.368 295.647 445.001 292C447.463 291.882 446.889 292.995 447.001 293Z" fill="#318E1E"/>
<path d="M573 293C574.56 297.049 571.357 299.079 571 300L569 294C569.206 294.004 570.208 292.991 573 293Z" fill="#4BA83C"/>
<path d="M591 297L589.5 313C589.096 313.328 581.35 307.385 581 307C580.992 305.484 582.371 293.991 580.5 294C577.596 298.717 578.354 304.09 581 307C581.005 307.993 580.994 309.007 581 310C575.308 311.346 577.895 325.666 577 330C576.428 325.886 576.322 321.938 572.5 320C568.468 317.956 565.156 318.277 563 321L559 319C560.069 318.301 564.723 313.088 564 311C570.1 310.329 568.919 305.365 571 300C571.357 299.079 574.56 297.049 573 293C583.483 293.036 581.285 293.206 591 297Z" fill="#034921"/>
<path d="M459 295C458.293 299.837 451.482 300.553 448 303C448.278 300.42 447.695 295.622 447 293C451.048 293.2 454.383 294.905 459 295Z" fill="#02361C"/>
<path d="M581 307C578.354 304.09 577.596 298.717 580.5 294C582.371 293.991 580.992 305.484 581 307Z" fill="#359A1D"/>
<path d="M703.999 311C704.479 311.27 710.891 318.96 710.999 319.5C712.751 328.246 695.79 330.273 690.499 333C688.441 334.061 685.303 338.723 682.499 340C671.371 345.066 658.213 342.431 647.999 351C647.979 350.899 646.156 351.348 645.999 350.5C643.05 334.584 644.533 317.91 641.499 302L637.999 354L617.999 356C617.947 355.782 616.739 355.671 615.999 352C618.705 354.491 636.325 352.495 637.499 351C638.108 350.225 638.376 338.168 637.999 337.5C636.933 335.612 634.654 338.086 634.499 338C627.319 334.017 620.008 327.991 611.999 326C611.303 317.618 610.579 308.371 611.999 300C618.288 299.288 621.377 295.057 629.499 296C632.44 296.341 638.738 300.596 641.499 301C648.877 302.081 658.291 299.29 664.499 300C670.718 300.711 677.436 307.803 682.499 309C689.882 310.746 697.177 307.16 703.999 311Z" fill="#024E27"/>
<path d="M598 300C596.698 300.096 595.267 299.821 594 300C593.024 300.138 592.673 297.965 591 300.5L592 316C589.687 318.61 588.289 328.779 592 329C592.107 338.536 593.216 351.953 596 361L583 362C580.647 342.958 581.11 328.933 581 310C580.994 309.007 581.005 307.993 581 307C581.35 307.385 589.096 313.328 589.5 313L591 297C593.261 297.883 596.169 298.531 598 300Z" fill="#0A5F32"/>
<path d="M431 320C430.386 331.598 429.049 350.118 426 361C423.317 370.575 413.484 391.321 409 401.5C396.429 430.039 375.561 456.682 374.5 489C408.246 456.597 432.728 414.116 440 367.5C440.4 364.934 438.952 362.342 439 362C441.066 347.222 443.863 331.597 444 316C444.167 315.931 443.46 312.964 447 314C446.958 314.887 447.038 316.553 447 318C446.723 328.523 447.103 340.636 446 351C445.615 354.617 445.461 358.471 445 362C437.95 415.92 410.068 458.592 374 497.5C377.247 526.211 373.481 555.903 377 584.5C382.234 627.035 402.65 671.682 409 714.5C412.976 741.31 411.136 768.024 413 795C412.677 794.933 410.933 797.375 408 793C419.625 719.459 380.574 651.532 373 582.5C370.123 556.281 373.085 529.252 370.5 503C359.221 516.214 349.58 531.765 354 549.5C362.885 585.15 378.957 599.281 376 642.5C374.38 666.184 361.234 691.157 359 710.5C357.737 721.432 362.576 738.677 362 751.5C360.39 787.322 331.096 835.066 302.5 856C301.074 857.044 295.588 861.994 295 858.5C294.73 856.896 314.993 838.905 318 835.5C346.495 803.236 365.687 765.363 355.5 721C352.751 729.17 326.54 783.387 321.5 784C320.841 784.08 318.049 782.693 318 782.5C317.619 780.994 332.629 760.963 335 756.5C338.463 749.981 353.291 719.722 354 714.5C356.445 696.485 337.122 658.963 331.5 641C299.193 674.505 273.877 706.691 273 755.5C272.943 758.686 278.027 771.344 270 766.5C263.107 711.957 296.754 673.158 330 635.5C309.221 587.331 300.928 539.128 323 489.5C326.964 480.588 338.685 466.608 341 460.5C346.908 444.913 348.761 416.286 354 398.5C358.95 381.693 369.691 365.594 374 351C378.73 334.98 378.522 318.419 381 302C381.156 301.975 382.507 301.331 384 301C382.867 316.331 382.01 331.758 380 347C379.927 347.557 377.288 350.953 378 352.5C378.539 353.569 379.457 351.426 381 352C373.889 370.175 374.927 391.276 368 410.5C362.18 426.653 349.08 436.993 346.5 453C376.319 427.309 394.03 396.246 407 359.5C407.843 357.113 405.956 357.127 406 357C406.744 354.822 410.064 349.265 411.5 347C411.923 349.647 412.436 355.632 412 358C408.563 376.687 386.285 415.274 374 430.5C369.051 436.634 346.672 456.692 345 461.5C339.047 478.624 344.161 514.415 349.5 532C349.937 520.009 367.432 503.72 370 495.5C372.631 487.078 371.879 473.289 375 462.5C384.634 429.201 409.287 397.117 420 360C423.92 346.42 425.244 336.924 427 323C427.991 315.139 428.983 306.776 430.5 299C434.037 299.007 431.115 317.826 431 320ZM371.5 365C360.435 386.603 355.055 410.298 350.5 434C364.62 414.256 372.339 389.135 371.5 365ZM338.5 470C305.065 519.566 308.365 578.172 332.5 631C350.576 607.123 347.733 575.828 346 547.5C345.094 532.696 341.648 523.053 340 508.5C338.549 495.687 339.872 482.721 338.5 470ZM350.5 552C351.459 582.193 353.605 611.266 334 636.5L357.5 703C377.458 651.883 376.852 600.508 350.5 552Z" fill="#3FAA26"/>
<path d="M594 300C593.136 303.55 596.037 318.086 592 316L591 300.5C592.673 297.965 593.024 300.138 594 300Z" fill="#3E9F26"/>
<path d="M598 300C601.51 299.742 605.661 300.459 609 300C608.856 312.008 608.908 323.99 610 336C606.195 331.805 601.049 321.994 595 327C592.449 313.393 591.901 320.203 592 329C588.289 328.779 589.687 318.61 592 316C596.037 318.086 593.136 303.55 594 300C595.267 299.821 596.698 300.096 598 300Z" fill="#034C25"/>
<path d="M611.999 300C610.579 308.371 611.303 317.618 611.999 326C612.735 334.864 614.247 343.31 615.999 352C616.739 355.671 617.947 355.782 617.999 356C633.366 420.749 689.877 448.612 683.999 521.5C681.889 547.658 678.684 559.498 684.999 587.5C689.049 605.455 699.584 622.92 713.499 635C720.586 596.036 723.322 546.015 712.999 507.5C698.194 452.261 637.958 416.545 639.999 354.5L637.999 354L641.499 302C644.533 317.91 643.05 334.584 645.999 350.5C646.156 351.348 647.979 350.899 647.999 351C649.904 360.431 650.96 369.052 654.999 378.5C661.414 393.505 676.95 408.795 678.999 424.5C679.698 429.86 676.926 435.246 676.999 436.5C677.144 438.978 701.364 470.431 704.999 477.5C729.359 524.88 725.359 588.399 716.999 639.5C741.501 664.254 770.652 692.113 782.999 725.5C784.223 728.809 792.681 755.417 788.499 756C783.869 746.376 782.312 734.102 777.999 723.5C765.885 693.725 739.469 666.796 716.499 645C709.518 684.958 705.528 727.2 726.999 763.5C729.741 768.135 744.763 784.098 744.999 785.5C746.349 793.528 735 780.824 732.999 778.5C707.43 748.806 705.902 711.735 707.999 674.5C708.357 668.144 713.6 645.079 712.999 641.5C712.747 640.002 697.57 624.442 694.999 620.5C680.509 598.284 682.819 583.282 677.999 559.5C677.773 558.386 677.13 551.804 674.999 553.5C664.151 580.368 654.378 602.496 658.999 632.5C663.718 663.141 686.199 693.499 692.999 722.5C701.717 759.678 685.538 781.364 706.999 820.5C710.486 826.859 732.112 851.433 731.999 853.5C731.989 853.677 729.676 856 729.499 856C723.192 856.007 696.323 808.864 693.999 800.5C686.744 774.389 695.165 751.764 689.999 726.5C681.434 684.612 649.017 652.369 653.999 603.5C655.877 585.074 672.699 559.618 673.999 547.5C675.111 537.133 649.58 493.526 643.999 480.5C631.549 451.44 622.261 421.014 610.999 391.5C607.41 382.094 598.775 370.022 595.999 361C593.215 351.953 592.106 338.536 591.999 329C591.9 320.203 592.448 313.393 594.999 327C597.504 340.363 597.921 346.608 601.999 360C612.607 394.836 632.293 443.645 646.999 477.5C655.832 497.834 667.088 516.956 676.499 537C701.104 464.112 625.494 419.319 611.999 357C610.862 351.749 610.528 341.816 609.999 336C608.907 323.99 608.855 312.008 608.999 300C609.964 299.867 611.027 300.11 611.999 300ZM644.499 360C645.823 386.634 657.091 412.04 674.499 432C674.971 405.577 648.32 386.933 644.499 360Z" fill="#3DA925"/>
<path d="M380.999 302C378.521 318.419 378.729 334.98 373.999 351C364.653 342.257 350.891 345.848 340.499 341C336.622 339.191 334.252 334.44 331.499 333C324.209 329.187 299.801 326.608 316.999 313C326.66 305.356 331.008 312.533 340.499 310C344.701 308.878 352.4 301.679 357.499 301C363.854 300.154 373.531 303.197 380.999 302Z" fill="#035128"/>
<path d="M564.001 311C564.724 313.088 560.07 318.301 559.001 319C550.278 324.707 553.165 311.698 557.501 310C559.824 309.09 563.451 311.06 564.001 311Z" fill="#539E4A"/>
<path d="M581 310C581.11 328.933 580.647 342.958 583 362C590.787 425.026 613.634 442.606 636 494.5C674.387 583.567 609.07 642.252 605 727.5C604.529 737.368 603.827 750.128 608 759C606.68 758.691 603.434 758.836 602 755C597.858 743.924 604.057 698.647 607 685.5C613.687 655.626 630.277 625.746 638 596.5C664.67 495.498 588.886 454.986 577 362C575.797 352.589 578.316 339.465 577 330C577.895 325.666 575.308 311.346 581 310Z" fill="#3EA925"/>
<path d="M510 324C508.989 323.84 507.242 327.569 505 325.5C504.084 324.655 504.167 320.693 504 320.5C502.212 318.43 500.23 319.48 499 317.5C498.789 317.161 500.06 312.273 500 312C504.518 312.224 509.592 320.298 510 324Z" fill="#2C8B39"/>
<path d="M444 316C443.863 331.597 441.066 347.222 439 362L426 361C429.049 350.118 430.386 331.598 431 320C434.517 318.261 440.839 317.303 444 316Z" fill="#0C6737"/>
<path d="M446 351C447.103 340.636 446.723 328.523 447 318C452.766 318.446 465.307 328.632 464 334.5L446 351Z" fill="#10703A"/>
<path d="M576.999 330C578.315 339.465 575.796 352.589 576.999 362C575.011 362.052 572.985 361.924 570.999 362C571.081 358.523 572.986 357.738 570.999 354C568.235 348.801 560.575 351.826 560.999 345C576.499 333.84 569.514 337.51 562.999 322C563.129 321.696 562.849 321.19 562.999 321C565.155 318.277 568.467 317.956 572.499 320C576.321 321.938 576.427 325.886 576.999 330Z" fill="#0D6738"/>
<path d="M561 345C560.233 345.552 558.727 347.121 558 346.5C571.503 329.245 561.91 336.51 560 331.5C559.823 331.035 562.599 322.934 563 322C569.515 337.51 576.5 333.84 561 345Z" fill="#2F8E43"/>
<path d="M420.001 360L412.001 358C412.437 355.632 411.924 349.647 411.501 347C410.065 349.265 406.745 354.822 406.001 357C397.533 355.387 389.208 355.051 381.001 352C379.458 351.426 378.54 353.569 378.001 352.5C377.289 350.953 379.928 347.557 380.001 347C396.593 339.65 408.948 326.737 427.001 323C425.245 336.924 423.921 346.42 420.001 360Z" fill="#0C6836"/>
<path d="M610 336C610.529 341.816 610.863 351.749 612 357L602 360C597.922 346.608 597.505 340.363 595 327C601.049 321.994 606.195 331.805 610 336Z" fill="#095F32"/>
<path d="M515.999 328C518.61 332.811 516.908 336.498 520.999 339.5C516.121 336.099 504.343 341.736 510.999 345C510.875 344.765 507.542 344.75 506.999 341.5C506.033 335.724 513.491 331.426 509.999 326.5L515.999 328Z" fill="#5DAE3A"/>
<path d="M616 352C614.248 343.31 612.736 334.864 612 326C620.009 327.991 627.32 334.017 634.5 338C634.655 338.086 636.934 335.612 638 337.5C638.377 338.168 638.109 350.225 637.5 351C636.326 352.495 618.706 354.491 616 352Z" fill="#065B2F"/>
<path d="M501.501 332L503.501 343C496.978 341.269 495.688 335.584 501.501 332Z" fill="#4AA23E"/>
<path d="M517 344L512 346C511.966 345.938 511.668 346.269 511 345C512.653 345.811 513.651 338.977 517 344Z" fill="#5DAE3A"/>
<path d="M517 344C523.104 353.155 528.654 362.98 514 364C519.365 358.676 513.068 356.968 513 356.5C512.512 353.155 515.641 352.606 512 346L517 344Z" fill="#78C54A"/>
<path d="M570.999 362C553.344 362.678 577.525 368.542 570.999 380C569.159 379.581 570.241 375.314 568.999 373.5C567.654 371.537 558.42 366.413 557.999 364.5C556.499 357.692 566.524 356.368 570.999 354C572.986 357.738 571.081 358.523 570.999 362Z" fill="#46A549"/>
<path d="M511 364V368.5C509.819 369.64 510.556 367.727 509 367C501.932 363.698 506.356 367.287 506 371L498 363.5C499.531 361.486 508.559 364.125 511 364Z" fill="#0D4B1E"/>
<path d="M505 386C506.682 391.214 516.474 392.99 503 397.5C507.582 400.844 513.875 393.254 511 388C511.962 388.343 514.326 387.633 515 388C516.954 389.063 518.881 395.113 519 397C519.95 412.1 503.995 417.348 503 421.5C501.332 428.464 514.996 425.748 513 434.5C512.869 435.075 506.323 440.901 506 442.5C505.246 446.23 508.026 449.137 508 449.5C507.969 449.935 504.101 452.8 505 456.5C505.184 457.259 508.385 459.371 509 460.5C509.864 462.087 509.861 465.286 510 465.5C511.238 467.398 516.39 468.369 517 470.5C518.956 477.328 506.761 490.212 499 489.5C497.547 492.647 504.429 497.239 505 500.5C507.891 517.001 487.314 512.61 487 518.5C486.968 519.096 491.77 526.238 492 527.5C495.738 547.972 477.383 543.452 476 547.5C479.892 559.622 488.618 569.602 473 578.5C472.194 583.864 494.586 585.215 490 603.5C488.94 607.726 481.166 609.591 486 617.5C487.878 620.573 496.669 623.163 498 628.5C499.334 633.848 495.393 641.501 496 643.5C496.866 646.351 503.832 646.102 506.5 648C518.166 656.299 502.507 674.355 510.5 677C512.565 677.683 516.28 675.106 520.5 678C531.288 685.399 519.785 699.423 521 703.5C522.111 707.229 538.063 709.136 535 724.5C534.207 728.48 528.375 730.871 529 735.5C529.697 740.66 540.216 740.885 539 750.5C538.106 757.57 525.224 760.855 526 765.5C526.178 766.564 533.372 771.912 534 773.5C539.405 787.163 518.868 787.601 518 790.5C516.93 794.074 522.813 798.464 520 805.5C517.281 812.299 506.908 810.906 506 815.5C505.081 820.151 510.802 822.663 510 827.5C509.607 829.871 504.286 833.428 504 834.5C503.263 837.258 506.113 841.99 506 846.5C505.939 848.914 503.418 852.063 504 857.5C504.671 863.767 510.352 871.217 516 874C502.55 871.196 495.36 845.365 496 832.5C497.278 806.825 516.015 783.311 516.5 757C509.406 758.831 501.124 763.905 504 772.5C504.731 774.684 510.032 775.046 509 778.5C508.279 780.914 502.771 780.781 502.5 781C489.708 791.344 501.043 797.631 500 801.5C499.72 802.537 492.898 804.584 492 809.5C491.018 814.88 494.657 821.047 494 826.5C493.846 827.783 489.012 835.941 489 836.5C488.936 839.458 503.809 872.917 507.5 875C507.871 875.209 507.905 872.194 509.5 873C513.116 874.827 526.476 885.576 525 875C532.296 873.595 532.852 866.181 529 861.5C530.893 859.665 534.122 861.887 535 862L535.5 867C538.621 867.051 534.893 864.57 535 864.5C537.845 862.649 542.146 868.231 546 867C545.67 869.403 546.578 873.649 546 875.5C545.627 876.693 536.722 884.603 535 886C526.296 884.413 522.03 887.692 512.5 882C503.01 876.332 498.899 865.703 494 857.5C493.253 856.249 487.308 853.156 487 851.5C486.403 848.289 491.003 846.415 491 845.5C490.997 844.484 482.808 840.07 486 832.5C486.529 831.245 490.693 828.54 491 827.5C493.116 820.339 485.382 814.679 487 806.5C487.455 804.199 495.174 793.935 494.5 802L498 800.5C489.607 788.438 494.403 780.686 508 777.5C499.225 772.238 497.05 763.757 506.5 758C507.306 757.509 513.931 759.125 514 754.5C514.052 750.962 501.023 749.02 503 737.5C503.78 732.956 510.803 730.521 509 726.5C505.998 719.805 493.872 728.874 491 714.5C488.944 704.211 496.49 691.593 496 689.5C495.184 686.012 483.151 690.784 481 680.5C479.395 672.828 486.313 667.271 485 662.5C484.141 659.378 477.773 661.472 474.5 660C465.165 655.803 464.991 639.653 472 633C472.666 633.409 473.333 631.325 474 632.5C475.264 635.097 471.123 639.121 471 640.5C469.314 659.416 488.883 665.062 486 645.5C481.679 616.184 444.131 588.131 456 551C460.684 536.347 475.258 516.665 482 502C484.365 504.171 486.533 498.64 487 497.5C498.318 469.867 503.358 442.883 498 413C504.164 404.991 496.545 402.704 494 395C496.919 392.942 496.932 390.889 498 390C500.566 387.864 500.198 386.063 505 386ZM512.5 724C511.683 730.205 504.05 738.612 506 744.5C506.572 746.227 516.298 750.977 516.5 756C518.998 753.229 514.605 723.518 512.5 724Z" fill="#217526"/>
<path d="M511 388C513.875 393.254 507.582 400.844 503 397.5C516.474 392.99 506.682 391.214 505 386C506.323 385.983 509.346 387.411 511 388Z" fill="#1B6C25"/>
<path d="M527.5 395C540.173 394.716 535.884 408.868 531.5 408C530.764 407.854 523.044 396.276 527.5 395Z" fill="#7DC755"/>
<path d="M489 417C487.18 417.007 483.282 413.006 479 416C478.779 414.258 480.115 407.185 483.5 408C484.013 408.124 488.917 415.549 489 417Z" fill="#56AF4D"/>
<path d="M538.999 431C542.525 433.577 545.902 437.418 549.999 439C549.249 440.883 546.383 442.362 545.999 443.5C542.649 453.433 549.65 455.625 550.999 464.5C553.716 468.074 560.288 460.375 562.999 463C540.409 474.472 561.768 480.337 565.999 488.5C572.023 500.121 561.066 512.234 548.999 512.5C572.287 542.294 536.793 542.282 535.999 544.5C535.694 545.353 539.465 557.046 537.999 562.5C535.965 570.067 526.278 567.824 525.999 568.5C525.572 569.532 533.25 586.736 521.999 587.5C527.996 593.239 531.325 595.297 529.999 604.5C529.776 606.05 526 609.18 525.999 609.5C525.995 610.712 536.164 615.432 533.999 627.5C533.684 629.255 528.853 635.296 528.999 636.5C529.169 637.902 545.07 652.146 538.999 661.5L545.999 684C544.907 684.983 544.805 685.353 542.999 685C539.897 680.223 534.278 677.468 531.999 672C529.19 665.258 531.185 658.781 526.499 653C524.935 660.247 529.067 666.606 530.999 673C532.991 679.593 537.104 695.116 540.999 700C538.548 702.643 541.652 703.8 541.999 705C542.563 706.95 542.964 709.921 542.999 712C542.423 713.125 542.504 716.504 540.999 717C537.118 711.218 518.946 656.829 519.999 651.5C520.289 650.034 522.941 648.223 522.999 648C525.852 637.04 522.222 640.977 520.999 632.5C519.382 621.291 519.259 610.194 514.999 599.5C513.192 606.534 512.007 597.686 508.999 593C508.881 592.816 508.721 591.096 507.999 590C509.777 584.381 511.62 569.917 505.999 567C512.302 562.613 504.325 563.996 502.999 558.5C499.799 545.243 515.451 548.716 515.999 543.5C516.329 540.359 507.348 535.653 511.999 524.5C515.01 517.278 524.314 519.702 525.999 516C528.33 510.878 519.492 497.288 526.999 486.5C531.038 480.695 535.182 483.825 537.999 479C538.305 478.896 538.726 479.117 538.999 479C550.74 473.968 534.507 460.773 541.499 452C541.647 451.814 543.146 454.571 543.999 453.5C543.713 452.177 544.413 449.372 543.999 448.5C543.18 446.772 540.608 450.565 539.999 448C541.443 446.491 544.019 446.231 543.999 444.5C532.836 436.17 511.008 428.665 525.999 412C528.657 418.826 530.1 426.872 536.499 431L537.499 429C538.13 430.096 537.889 430.189 538.999 431Z" fill="#267927"/>
<path d="M482 502C490.646 483.192 496.984 460.263 497 441.5C497 441.119 494.015 434.945 494 434.5C493.85 430.15 496.98 426.965 497 426.5C497.025 425.934 494.081 419.68 495 416C495.185 415.897 497.871 413.168 498 413C503.358 442.883 498.318 469.867 487 497.5C486.533 498.64 484.365 504.171 482 502Z" fill="#1C5F1A"/>
<path d="M489 417C491.485 416.991 492.664 417.3 495 416C494.081 419.68 497.025 425.934 497 426.5C496.98 426.965 493.85 430.15 494 434.5C494.015 434.945 497 441.119 497 441.5C496.984 460.263 490.646 483.192 482 502C475.258 516.665 460.684 536.347 456 551L453.5 547C449.009 556.955 435.85 555.537 443 569.5C446.365 576.072 454.458 574.238 447 583C451.786 573.34 439.575 574.236 438 567.5C434.892 554.21 449.668 551.45 450 549.5C450.864 544.425 429.505 532.613 456.5 519C456.771 518.863 459.859 522.181 461 517.5C462.055 513.174 451.552 505.443 456 495.5C460.185 486.143 473.014 491.198 474 489.5C477.021 484.297 470.466 475.223 472 468.5C473.645 461.292 483.947 462.108 485 458.5C485.979 455.147 479.405 450.629 479 445.5C478.742 442.238 480.528 440.473 481 438C481.558 435.073 484.737 433.427 484 427.5C483.554 423.915 479.64 421.05 479 416C483.282 413.006 487.18 417.007 489 417Z" fill="#2A7F2A"/>
<path d="M538.999 479C543.28 464.424 525.06 463.616 539.999 448C540.608 450.565 543.18 446.772 543.999 448.5C544.413 449.372 543.713 452.177 543.999 453.5C543.146 454.571 541.647 451.814 541.499 452C534.507 460.773 550.74 473.968 538.999 479Z" fill="#18631C"/>
<path d="M563 472L559 468.5L563 463L565 464.5C562.786 467.589 565.016 469.58 565 471.5C564.993 472.314 562.995 471.897 563 472Z" fill="#257928"/>
<path d="M526 516C518.52 508.412 514.821 487.64 525.5 482C528.396 480.471 534.207 480.295 538 479C535.183 483.825 531.039 480.695 527 486.5C519.493 497.288 528.331 510.878 526 516Z" fill="#155E18"/>
<path d="M456.001 551C444.132 588.131 481.68 616.184 486.001 645.5C488.884 665.062 469.315 659.416 471.001 640.5C471.124 639.121 475.265 635.097 474.001 632.5C473.334 631.325 472.667 633.409 472.001 633C466.263 629.477 457.834 630.884 454.001 623.5C448.49 612.882 456.868 604.655 456.001 600.5C454.713 594.327 441.805 600.594 441.001 591.5C440.472 585.518 444.867 585.507 447.001 583C454.459 574.238 446.366 576.072 443.001 569.5C435.851 555.537 449.01 556.955 453.501 547L456.001 551Z" fill="#388A2D"/>
<path d="M508 590C501.83 580.638 490.393 577.862 506 567C511.621 569.917 509.778 584.381 508 590Z" fill="#18651C"/>
<path d="M523 648C521.513 641.343 512.282 642.599 509 637.5C503.178 628.456 513.3 625.827 514 623.5C516.426 615.43 507.69 616.498 504.5 614C496.083 607.41 496.518 594.151 509 593C512.008 597.686 513.193 606.534 515 599.5C519.26 610.194 519.383 621.291 521 632.5C522.223 640.977 525.853 637.04 523 648Z" fill="#1C6F23"/>
<path d="M532 672L531 673C529.068 666.606 524.936 660.247 526.5 653C531.186 658.781 529.191 665.258 532 672Z" fill="#41942E"/>
<path d="M565.999 712C561.386 720.56 572.368 720.04 575.999 725.5C576.794 726.696 576.8 732.208 576.999 732.5C578.92 735.321 589.888 731.956 584.499 742C580.778 741.872 584.441 731.43 580.999 736.5C575.083 745.213 585.948 744.609 586.499 745C591.134 748.29 589.375 760.55 601.999 755C603.433 758.836 606.679 758.691 607.999 759C619.053 761.59 619.651 756.002 622.499 756C623.992 755.999 627.07 760.909 632.499 760C633.176 759.887 643.649 753.091 643.999 752.5C648.043 745.665 640.614 730.328 630.999 733C639.482 729.703 644.829 725.467 651.999 732.5C657.687 738.079 659.73 751.769 655.999 758.5C655.478 759.44 639.468 770.533 638.499 771C621.284 779.301 592.035 775.689 577.999 760C570.202 751.285 552.745 720.132 565.999 712Z" fill="#2E924D"/>
<path d="M648 888C647.842 887.972 647.22 890.562 645.5 890C621.366 859.044 606.841 819.523 602 780.5C600.352 776.812 585.954 774.923 583.5 774C580.559 772.894 575.828 766.826 569 768C569.312 767.272 569.104 766.746 570 765L575 761C576.616 761.017 576.775 760.545 578 760C592.036 775.689 621.285 779.301 638.5 771C639.469 770.533 655.479 759.44 656 758.5C659.731 751.769 657.688 738.079 652 732.5C644.83 725.467 639.483 729.703 631 733C629.932 733.415 625.728 738.291 625 733.5C623.918 726.385 643.989 721.563 649.5 723C650.26 726.889 661.689 734.673 662 735.5C662.948 738.024 660.918 740.259 661 740.5C661.645 742.396 665.032 745.832 665 748.5C664.973 750.815 660.634 755.111 661 757.5C661.328 759.638 681.969 786.825 685 793.5C693.663 812.578 694.473 830.869 683.5 849L681 846.5C698.879 814.818 678.278 788.23 660.5 763C650.379 767.216 629.932 782.171 619.5 781C617.714 780.8 607.136 773.755 605 780.5C604.491 782.108 610.935 809.528 612 813.5C619.153 840.173 632.191 865.603 648 888Z" fill="#4FA945"/>
<path d="M512.499 724C514.604 723.518 518.997 753.229 516.499 756C516.297 750.977 506.571 746.227 505.999 744.5C504.049 738.612 511.682 730.205 512.499 724Z" fill="#308428"/>
<path d="M470 755C472.246 758.312 476.85 760.923 476 765.5C474.528 773.424 464.405 765.899 461 771.5C458.058 776.339 462.678 777.867 464 782C460.348 781.771 462.891 785.926 461.5 788C459.855 790.453 453.535 788.32 451.5 789C448.097 790.136 448.665 799.593 445.5 802C445.182 802.242 438.11 801.798 437.5 802C421.857 807.193 393.219 814.852 380 797.5C368.557 782.479 380.003 761.667 399 770C399.03 774.447 393.992 770.231 391.5 771C383.102 773.59 378.935 795.555 397 795C399.093 797.1 409.232 797.303 410.5 799C411.826 800.775 409.818 804.835 412.5 806C413.654 806.501 428.217 802.708 429.5 802C438.548 797.004 447.66 778.099 452 769C452.853 767.212 461.586 736.391 467 745.5C461.827 749.79 469.446 754.182 470 755Z" fill="#278E4D"/>
<path d="M516 874C518.644 874.551 522.432 875.494 525 875C526.476 885.576 513.116 874.827 509.5 873C507.905 872.194 507.871 875.209 507.5 875C503.809 872.917 488.936 839.458 489 836.5C489.012 835.941 493.846 827.783 494 826.5C494.657 821.047 491.018 814.88 492 809.5C492.898 804.584 499.72 802.537 500 801.5C501.043 797.631 489.708 791.344 502.5 781C502.771 780.781 508.279 780.914 509 778.5C510.032 775.046 504.731 774.684 504 772.5C501.124 763.905 509.406 758.831 516.5 757C516.015 783.311 497.278 806.825 496 832.5C495.36 845.365 502.55 871.196 516 874Z" fill="#40912E"/>
<path d="M452 769C447.66 778.099 438.548 797.004 429.5 802C428.217 802.708 413.654 806.501 412.5 806C409.818 804.835 411.826 800.775 410.5 799C409.232 797.303 399.093 797.1 397 795C400.824 794.882 404.008 792.295 408 793C410.933 797.375 412.677 794.933 413 795C426.338 797.768 431.118 794.683 438 783.5C438.507 782.676 437.491 778.54 438 777.5C440.773 771.829 447.741 778.456 448 761C452.538 760.684 447.462 769.316 452 769Z" fill="#3F9B46"/>
<path d="M399 770C380.003 761.667 368.557 782.479 380 797.5C393.219 814.852 421.857 807.193 437.5 802C438.11 801.798 445.182 802.242 445.5 802C448.665 799.593 448.097 790.136 451.5 789C453.535 788.32 459.855 790.453 461.5 788C462.891 785.926 460.348 781.771 464 782C467.178 791.941 457.357 790.875 456 794.5C454.793 797.723 457.308 802.307 457 805.5C455.291 823.226 451.555 840.772 443 856.5C437.077 867.389 423.163 887.86 409 883C409.257 882.784 408.482 880.435 409.5 880C410.829 879.432 415.347 880.576 416.5 880C440.607 867.953 454.573 823.095 453 797.5C449.684 794.758 448.791 805.899 445.5 807C443.323 807.728 437.446 806.238 435.5 807C434.901 807.235 432.681 813.392 429.5 814C426.045 814.66 423.717 811.179 419.5 812C413.247 813.218 415.622 818.654 415 819.5C400.586 839.106 385.763 858.384 374.5 880C370.261 879.357 379.993 861.265 381 859.5C384.945 852.581 410.611 822.242 409 816.5C408.855 815.985 401.023 810.115 400.5 810C398.141 809.483 393.343 811.807 389.5 811C383.251 809.688 384.994 804.188 382.5 803C381.589 802.566 380.018 804.8 378.5 804C375.827 802.591 372.483 790.964 368 788.5C368.341 773.189 387.064 749.732 399 770Z" fill="#44AF29"/>
<defs>
<linearGradient id="paint0_linear_2551_953" x1="474.562" y1="192.231" x2="467.893" y2="273.959" gradientUnits="userSpaceOnUse">
<stop stop-color="#60AD4B"/>
<stop offset="1" stop-color="#459248"/>
</linearGradient>
<linearGradient id="paint1_linear_2551_953" x1="544.722" y1="190.684" x2="557.446" y2="273.714" gradientUnits="userSpaceOnUse">
<stop stop-color="#62AF4A"/>
<stop offset="1" stop-color="#469348"/>
</linearGradient>
<linearGradient id="paint2_linear_2551_953" x1="510.873" y1="163.579" x2="513.207" y2="267.553" gradientUnits="userSpaceOnUse">
<stop stop-color="#6EBB4B"/>
<stop offset="1" stop-color="#489548"/>
</linearGradient>
<linearGradient id="paint3_linear_2551_953" x1="493.99" y1="198.459" x2="506.714" y2="281.489" gradientUnits="userSpaceOnUse">
<stop stop-color="#62AF4A"/>
<stop offset="1" stop-color="#469348"/>
</linearGradient>
<linearGradient id="paint4_linear_2551_953" x1="445.635" y1="317.763" x2="452.302" y2="579.678" gradientUnits="userSpaceOnUse">
<stop stop-color="#11763E"/>
<stop offset="0.793893" stop-color="#279053"/>
</linearGradient>
<linearGradient id="paint5_linear_2551_953" x1="561.218" y1="298.48" x2="558.492" y2="578.467" gradientUnits="userSpaceOnUse">
<stop stop-color="#096936"/>
<stop offset="0.767857" stop-color="#34954E"/>
</linearGradient>
<linearGradient id="paint6_linear_2551_953" x1="519.124" y1="314.627" x2="582.349" y2="440.657" gradientUnits="userSpaceOnUse">
<stop stop-color="#035E36"/>
<stop offset="1" stop-color="#449E4C"/>
</linearGradient>
</defs>
</svg>
